<?xml version="1.0" encoding="UTF-8" standalone="no"?><svg xmlns="http://www.w3.org/2000/svg" xmlns:xlink="http://www.w3.org/1999/xlink" contentScriptType="application/ecmascript" contentStyleType="text/css" height="330px" preserveAspectRatio="none" style="width:648px;height:330px;" version="1.1" viewBox="0 0 648 330" width="648px" zoomAndPan="magnify"><defs><filter height="300%" id="fuc91xfotrl19" width="300%" x="-1" y="-1"><feGaussianBlur result="blurOut" stdDeviation="2.0"/><feColorMatrix in="blurOut" result="blurOut2" type="matrix" values="0 0 0 0 0 0 0 0 0 0 0 0 0 0 0 0 0 0 .4 0"/><feOffset dx="4.0" dy="4.0" in="blurOut2" result="blurOut3"/><feBlend in="SourceGraphic" in2="blurOut3" mode="normal"/></filter></defs><g><!--MD5=[e0c304cc86cc984d406d786579517f15]
class tbl_user--><rect fill="#FFFFFF" filter="url(#fuc91xfotrl19)" height="85.1309" id="tbl_user" rx="5" ry="5" style="stroke: #999999; stroke-width: 0.5;" width="147.3333" x="174" y="7"/><rect fill="#EEEEEE" height="38.2656" rx="5" ry="5" style="stroke: #EEEEEE; stroke-width: 0.5;" width="147.3333" x="174" y="7"/><rect fill="#EEEEEE" height="5" style="stroke: #EEEEEE; stroke-width: 0.5;" width="147.3333" x="174" y="40.2656"/><rect fill="none" height="85.1309" id="tbl_user" rx="5" ry="5" style="stroke: #999999; stroke-width: 0.5;" width="147.3333" x="174" y="7"/><text fill="#000000" font-family="sans-serif" font-size="12" font-weight="bold" lengthAdjust="spacingAndGlyphs" textLength="27" x="234.1667" y="23.6016">user</text><text fill="#666666" font-family="sans-serif" font-size="12" font-style="italic" lengthAdjust="spacingAndGlyphs" textLength="107" x="194.1667" y="37.7344">User in our system</text><line style="stroke: #999999; stroke-width: 0.5;" x1="175" x2="320.3333" y1="45.2656" y2="45.2656"/><path d="M186.0417,52.1374 C184.7767,52.1374 183.75,53.164 183.75,54.429 C183.75,54.5757 183.7803,54.7013 183.8078,54.8305 L181,57.6383 L181,59.4716 L183.75,59.4716 L183.75,57.6383 L185.5833,57.6383 L185.5833,56.7216 L185.6411,56.6639 C185.7694,56.6914 185.895,56.7216 186.0426,56.7216 C187.3076,56.7216 188.3343,55.695 188.3343,54.43 C188.3343,53.165 187.3076,52.1383 186.0426,52.1383 M186.5009,53.055 C187.0051,53.055 187.4176,53.4675 187.4176,53.9716 C187.4176,54.4758 187.0051,54.8883 186.5009,54.8883 C185.9968,54.8883 185.5843,54.4758 185.5843,53.9716 C185.5843,53.4675 185.9968,53.055 186.5009,53.055 " fill="#666666" style="stroke: ; stroke-width: 0.0; stroke-dasharray: ;"/><text fill="#000000" font-family="sans-serif" font-size="11" lengthAdjust="spacingAndGlyphs" textLength="0" x="192.3333" y="59.9004"/><text fill="#000000" font-family="sans-serif" font-size="11" font-weight="bold" lengthAdjust="spacingAndGlyphs" textLength="11" x="192.3333" y="59.9004">id</text><text fill="#666666" font-family="sans-serif" font-size="11" lengthAdjust="spacingAndGlyphs" textLength="31" x="203.3333" y="59.9004">&lt;pk&gt;</text><text fill="#000000" font-family="sans-serif" font-size="11" lengthAdjust="spacingAndGlyphs" textLength="0" x="240.3333" y="59.9004"/><text fill="#999999" font-family="sans-serif" font-size="11" lengthAdjust="spacingAndGlyphs" textLength="38" x="240.3333" y="59.9004">integer</text><path d="M181,65.0924 L181,67.8424 L185.5833,72.4258 L188.3333,69.6758 L183.75,65.0924 L181,65.0924 M182.8333,66.0091 C183.3375,66.0091 183.75,66.4216 183.75,66.9258 C183.75,67.4299 183.3375,67.8424 182.8333,67.8424 C182.3292,67.8424 181.9167,67.4299 181.9167,66.9258 C181.9167,66.4216 182.3292,66.0091 182.8333,66.0091 " fill="#FFFFFF" style="stroke: ; stroke-width: 0.0; stroke-dasharray: ;"/><text fill="#000000" font-family="sans-serif" font-size="11" lengthAdjust="spacingAndGlyphs" textLength="0" x="192.3333" y="72.8555"/><text fill="#000000" font-family="sans-serif" font-size="11" font-weight="bold" lengthAdjust="spacingAndGlyphs" textLength="54" x="192.3333" y="72.8555">username</text><text fill="#000000" font-family="sans-serif" font-size="11" lengthAdjust="spacingAndGlyphs" textLength="0" x="252.3333" y="72.8555"/><text fill="#999999" font-family="sans-serif" font-size="11" lengthAdjust="spacingAndGlyphs" textLength="63" x="252.3333" y="72.8555">varchar(32)</text><path d="M181,80.7975 L181,82.6309 L188.3333,82.6309 L188.3333,80.7975 L181,80.7975 " fill="#FFFFFF" style="stroke: ; stroke-width: 0.0; stroke-dasharray: ;"/><text fill="#000000" font-family="sans-serif" font-size="11" lengthAdjust="spacingAndGlyphs" textLength="0" x="192.3333" y="85.8105"/><text fill="#000000" font-family="sans-serif" font-size="11" lengthAdjust="spacingAndGlyphs" textLength="52" x="192.3333" y="85.8105">password</text><text fill="#000000" font-family="sans-serif" font-size="11" lengthAdjust="spacingAndGlyphs" textLength="0" x="250.3333" y="85.8105"/><text fill="#999999" font-family="sans-serif" font-size="11" lengthAdjust="spacingAndGlyphs" textLength="63" x="250.3333" y="85.8105">varchar(64)</text><!--MD5=[cd028fbb44bb700fa95d906270ce2120]
class tbl_session--><rect fill="#FFFFFF" filter="url(#fuc91xfotrl19)" height="72.1758" id="tbl_session" rx="5" ry="5" style="stroke: #999999; stroke-width: 0.5;" width="137.3333" x="7" y="212"/><rect fill="#EEEEEE" height="38.2656" rx="5" ry="5" style="stroke: #EEEEEE; stroke-width: 0.5;" width="137.3333" x="7" y="212"/><rect fill="#EEEEEE" height="5" style="stroke: #EEEEEE; stroke-width: 0.5;" width="137.3333" x="7" y="245.2656"/><rect fill="none" height="72.1758" id="tbl_session" rx="5" ry="5" style="stroke: #999999; stroke-width: 0.5;" width="137.3333" x="7" y="212"/><text fill="#000000" font-family="sans-serif" font-size="12" font-weight="bold" lengthAdjust="spacingAndGlyphs" textLength="48" x="51.6667" y="228.6016">session</text><text fill="#666666" font-family="sans-serif" font-size="12" font-style="italic" lengthAdjust="spacingAndGlyphs" textLength="91" x="30.1667" y="242.7344">session for user</text><line style="stroke: #999999; stroke-width: 0.5;" x1="8" x2="143.3333" y1="250.2656" y2="250.2656"/><path d="M19.0417,257.1374 C17.7767,257.1374 16.75,258.164 16.75,259.429 C16.75,259.5757 16.7803,259.7013 16.8078,259.8305 L14,262.6383 L14,264.4716 L16.75,264.4716 L16.75,262.6383 L18.5833,262.6383 L18.5833,261.7216 L18.6411,261.6639 C18.7694,261.6914 18.895,261.7216 19.0426,261.7216 C20.3076,261.7216 21.3342,260.695 21.3342,259.43 C21.3342,258.165 20.3076,257.1383 19.0426,257.1383 M19.5009,258.055 C20.0051,258.055 20.4176,258.4675 20.4176,258.9716 C20.4176,259.4758 20.0051,259.8883 19.5009,259.8883 C18.9968,259.8883 18.5843,259.4758 18.5843,258.9716 C18.5843,258.4675 18.9968,258.055 19.5009,258.055 " fill="#666666" style="stroke: ; stroke-width: 0.0; stroke-dasharray: ;"/><text fill="#000000" font-family="sans-serif" font-size="11" lengthAdjust="spacingAndGlyphs" textLength="0" x="25.3333" y="264.9004"/><text fill="#000000" font-family="sans-serif" font-size="11" font-weight="bold" lengthAdjust="spacingAndGlyphs" textLength="11" x="25.3333" y="264.9004">id</text><text fill="#666666" font-family="sans-serif" font-size="11" lengthAdjust="spacingAndGlyphs" textLength="31" x="36.3333" y="264.9004">&lt;pk&gt;</text><text fill="#000000" font-family="sans-serif" font-size="11" lengthAdjust="spacingAndGlyphs" textLength="0" x="73.3333" y="264.9004"/><text fill="#999999" font-family="sans-serif" font-size="11" lengthAdjust="spacingAndGlyphs" textLength="38" x="73.3333" y="264.9004">integer</text><path d="M19.3854,270.1209 C19.2167,270.13 19.0609,270.1484 18.8987,270.207 C18.6512,270.2941 18.4119,270.4362 18.2112,270.6369 A0.4583,0.4583 0 1 0 18.8418,271.2676 C18.9344,271.175 19.0664,271.109 19.1856,271.0669 C19.5083,270.9514 19.9006,271.0082 20.16,271.2676 C20.5221,271.6242 20.5267,272.2182 20.16,272.5858 L18.785,273.9608 C18.3872,274.3586 18.0526,274.4035 17.8106,274.3907 C17.5686,274.3769 17.4384,274.2761 17.4384,274.2761 A0.462,0.462 0 1 0 16.9801,275.0782 C17.2918,275.2817 17.2918,275.2817 17.7538,275.3074 C18.2158,275.333 18.851,275.1561 19.4157,274.5914 L20.7907,273.2164 C21.5057,272.5014 21.5103,271.3455 20.7907,270.6379 C20.5349,270.3821 20.2352,270.2235 19.9024,270.1511 C19.7365,270.1154 19.555,270.1135 19.3863,270.1227 M17.553,272.2429 C17.0938,272.2255 16.4658,272.385 15.9204,272.9304 L14.5454,274.3054 C13.8304,275.0204 13.8258,276.1764 14.5454,276.884 C15.056,277.3946 15.7875,277.5459 16.4365,277.3139 C16.684,277.2269 16.9233,277.0848 17.124,276.884 A0.4583,0.4583 0 1 0 16.4933,276.2534 C16.4008,276.3459 16.2688,276.4119 16.1496,276.4541 C15.8269,276.5696 15.4346,276.5128 15.1752,276.2534 C14.8131,275.8968 14.8085,275.3028 15.1752,274.9352 L16.5502,273.5602 C16.9214,273.1889 17.2395,273.1495 17.4953,273.1587 C17.751,273.1688 17.9252,273.2449 17.9252,273.2449 A0.4583,0.4583 0 1 0 18.3267,272.4428 C18.0123,272.2604 18.0123,272.2604 17.553,272.242 " fill="#666666" style="stroke: ; stroke-width: 0.0; stroke-dasharray: ;"/><text fill="#000000" font-family="sans-serif" font-size="11" lengthAdjust="spacingAndGlyphs" textLength="0" x="25.3333" y="277.8555"/><text fill="#000000" font-family="sans-serif" font-size="11" font-weight="bold" lengthAdjust="spacingAndGlyphs" textLength="41" x="25.3333" y="277.8555">user_id</text><text fill="#666666" font-family="sans-serif" font-size="11" lengthAdjust="spacingAndGlyphs" textLength="28" x="66.3333" y="277.8555">&lt;fk&gt;</text><text fill="#000000" font-family="sans-serif" font-size="11" lengthAdjust="spacingAndGlyphs" textLength="0" x="100.3333" y="277.8555"/><text fill="#999999" font-family="sans-serif" font-size="11" lengthAdjust="spacingAndGlyphs" textLength="38" x="100.3333" y="277.8555">integer</text><!--MD5=[c75ee8908a4711a1a02d0542c1a69e1f]
class tbl_user_profile--><rect fill="#FFFFFF" filter="url(#fuc91xfotrl19)" height="127.9961" id="tbl_user_profile" rx="5" ry="5" style="stroke: #999999; stroke-width: 0.5;" width="137.3333" x="179" y="184"/><rect fill="#EEEEEE" height="38.2656" rx="5" ry="5" style="stroke: #EEEEEE; stroke-width: 0.5;" width="137.3333" x="179" y="184"/><rect fill="#EEEEEE" height="5" style="stroke: #EEEEEE; stroke-width: 0.5;" width="137.3333" x="179" y="217.2656"/><rect fill="none" height="127.9961" id="tbl_user_profile" rx="5" ry="5" style="stroke: #999999; stroke-width: 0.5;" width="137.3333" x="179" y="184"/><text fill="#000000" font-family="sans-serif" font-size="12" font-weight="bold" lengthAdjust="spacingAndGlyphs" textLength="74" x="210.6667" y="200.6016">user_profile</text><text fill="#666666" font-family="sans-serif" font-size="12" font-style="italic" lengthAdjust="spacingAndGlyphs" textLength="100" x="197.6667" y="214.7344">Some info of user</text><line style="stroke: #999999; stroke-width: 1.5;" x1="180" x2="315.3333" y1="222.2656" y2="222.2656"/><path d="M191.3854,229.1658 C191.2168,229.175 191.0609,229.1933 190.8987,229.252 C190.6512,229.339 190.4119,229.4811 190.2112,229.6819 A0.4583,0.4583 0 1 0 190.8418,230.3125 C190.9344,230.22 191.0664,230.154 191.1856,230.1118 C191.5083,229.9963 191.9006,230.0531 192.16,230.3125 C192.5221,230.6691 192.5267,231.2631 192.16,231.6307 L190.785,233.0057 C190.3872,233.4035 190.0526,233.4485 189.8106,233.4356 C189.5686,233.4219 189.4384,233.321 189.4384,233.321 A0.462,0.462 0 1 0 188.9801,234.1231 C189.2918,234.3266 189.2918,234.3266 189.7538,234.3523 C190.2158,234.378 190.851,234.201 191.4157,233.6364 L192.7907,232.2614 C193.5057,231.5464 193.5102,230.3905 192.7907,229.6828 C192.5349,229.427 192.2352,229.2685 191.9024,229.196 C191.7365,229.1603 191.555,229.1585 191.3863,229.1676 M189.553,231.2879 C189.0938,231.2705 188.4658,231.43 187.9204,231.9754 L186.5454,233.3504 C185.8304,234.0654 185.8258,235.2213 186.5454,235.929 C187.056,236.4395 187.7875,236.5908 188.4365,236.3589 C188.684,236.2718 188.9233,236.1297 189.124,235.929 A0.4583,0.4583 0 1 0 188.4933,235.2983 C188.4008,235.3909 188.2688,235.4569 188.1496,235.499 C187.8269,235.6145 187.4346,235.5577 187.1752,235.2983 C186.8131,234.9417 186.8085,234.3477 187.1752,233.9801 L188.5502,232.6051 C188.9214,232.2339 189.2395,232.1945 189.4953,232.2036 C189.751,232.2137 189.9252,232.2898 189.9252,232.2898 A0.4583,0.4583 0 1 0 190.3267,231.4877 C190.0123,231.3053 190.0123,231.3053 189.553,231.287 " fill="#666666" style="stroke: ; stroke-width: 0.0; stroke-dasharray: ;"/><text fill="#000000" font-family="sans-serif" font-size="11" lengthAdjust="spacingAndGlyphs" textLength="0" x="197.3333" y="236.9004"/><text fill="#000000" font-family="sans-serif" font-size="11" font-weight="bold" lengthAdjust="spacingAndGlyphs" textLength="41" x="197.3333" y="236.9004">user_id</text><text fill="#666666" font-family="sans-serif" font-size="11" lengthAdjust="spacingAndGlyphs" textLength="28" x="238.3333" y="236.9004">&lt;fk&gt;</text><text fill="#000000" font-family="sans-serif" font-size="11" lengthAdjust="spacingAndGlyphs" textLength="0" x="272.3333" y="236.9004"/><text fill="#999999" font-family="sans-serif" font-size="11" lengthAdjust="spacingAndGlyphs" textLength="38" x="272.3333" y="236.9004">integer</text><path d="M190.0966,242.0924 C189.3138,242.0924 188.7399,242.3271 188.3778,242.6938 C188.0158,243.0604 187.8828,243.5197 187.8333,243.868 L188.75,243.9826 C188.783,243.7443 188.8646,243.527 189.0369,243.3519 C189.2093,243.1778 189.487,243.0082 190.0966,243.0082 C190.7053,243.0082 191.0307,243.1576 191.214,243.3235 C191.3964,243.4894 191.4716,243.6948 191.4716,243.9249 C191.4716,244.6884 191.1847,244.8993 190.7263,245.2999 C190.268,245.7014 189.6373,246.2926 189.6373,247.3624 L189.6373,247.5915 L190.554,247.5915 L190.554,247.3624 C190.554,246.5988 190.8693,246.3879 191.3277,245.9874 C191.786,245.5859 192.3873,244.9946 192.3873,243.9249 C192.3873,243.4858 192.2333,242.9899 191.8428,242.636 C191.4523,242.2813 190.8611,242.0915 190.0957,242.0915 M189.6373,248.5082 L189.6373,249.4249 L190.554,249.4249 L190.554,248.5082 L189.6373,248.5082 " fill="#666666" style="stroke: ; stroke-width: 0.0; stroke-dasharray: ;"/><text fill="#000000" font-family="sans-serif" font-size="11" lengthAdjust="spacingAndGlyphs" textLength="0" x="197.3333" y="249.8555"/><text fill="#000000" font-family="sans-serif" font-size="11" font-style="italic" lengthAdjust="spacingAndGlyphs" textLength="38" x="197.3333" y="249.8555">gender</text><text fill="#000000" font-family="sans-serif" font-size="11" lengthAdjust="spacingAndGlyphs" textLength="0" x="241.3333" y="249.8555"/><text fill="#999999" font-family="sans-serif" font-size="11" lengthAdjust="spacingAndGlyphs" textLength="63" x="241.3333" y="249.8555">varchar(15)</text><path d="M190.0966,255.0475 C189.3138,255.0475 188.7399,255.2822 188.3778,255.6489 C188.0158,256.0155 187.8828,256.4748 187.8333,256.8231 L188.75,256.9377 C188.783,256.6994 188.8646,256.4821 189.0369,256.307 C189.2093,256.1329 189.487,255.9633 190.0966,255.9633 C190.7053,255.9633 191.0307,256.1127 191.214,256.2786 C191.3964,256.4445 191.4716,256.6499 191.4716,256.8799 C191.4716,257.6435 191.1847,257.8544 190.7263,258.2549 C190.268,258.6564 189.6373,259.2477 189.6373,260.3174 L189.6373,260.5466 L190.554,260.5466 L190.554,260.3174 C190.554,259.5539 190.8693,259.343 191.3277,258.9424 C191.786,258.5409 192.3873,257.9497 192.3873,256.8799 C192.3873,256.4409 192.2333,255.9449 191.8428,255.5911 C191.4523,255.2364 190.8611,255.0466 190.0957,255.0466 M189.6373,261.4633 L189.6373,262.3799 L190.554,262.3799 L190.554,261.4633 L189.6373,261.4633 " fill="#666666" style="stroke: ; stroke-width: 0.0; stroke-dasharray: ;"/><text fill="#000000" font-family="sans-serif" font-size="11" lengthAdjust="spacingAndGlyphs" textLength="0" x="197.3333" y="262.8105"/><text fill="#000000" font-family="sans-serif" font-size="11" font-style="italic" lengthAdjust="spacingAndGlyphs" textLength="45" x="197.3333" y="262.8105">birthday</text><text fill="#000000" font-family="sans-serif" font-size="11" lengthAdjust="spacingAndGlyphs" textLength="0" x="248.3333" y="262.8105"/><text fill="#999999" font-family="sans-serif" font-size="11" lengthAdjust="spacingAndGlyphs" textLength="46" x="248.3333" y="262.8105">datetime</text><text fill="#000000" font-family="sans-serif" font-size="11" lengthAdjust="spacingAndGlyphs" textLength="109" x="185" y="292.7207">Space to enter notes</text><text fill="#000000" font-family="sans-serif" font-size="11" lengthAdjust="spacingAndGlyphs" textLength="83" x="185" y="305.6758">about this table</text><line style="stroke: #999999; stroke-width: 1.0;" x1="180" x2="232.1667" y1="275.6084" y2="275.6084"/><text fill="#000000" font-family="sans-serif" font-size="11" lengthAdjust="spacingAndGlyphs" textLength="31" x="232.1667" y="279.2656">Notes</text><line style="stroke: #999999; stroke-width: 1.0;" x1="263.1667" x2="315.3333" y1="275.6084" y2="275.6084"/><!--MD5=[8c57784de5873e108c11a6d04cdead6d]
class tbl_group--><rect fill="#FFFFFF" filter="url(#fuc91xfotrl19)" height="72.1758" id="tbl_group" rx="5" ry="5" style="stroke: #999999; stroke-width: 0.5;" width="122.3333" x="462.5" y="13.5"/><rect fill="#EEEEEE" height="38.2656" rx="5" ry="5" style="stroke: #EEEEEE; stroke-width: 0.5;" width="122.3333" x="462.5" y="13.5"/><rect fill="#EEEEEE" height="5" style="stroke: #EEEEEE; stroke-width: 0.5;" width="122.3333" x="462.5" y="46.7656"/><rect fill="none" height="72.1758" id="tbl_group" rx="5" ry="5" style="stroke: #999999; stroke-width: 0.5;" width="122.3333" x="462.5" y="13.5"/><text fill="#000000" font-family="sans-serif" font-size="12" font-weight="bold" lengthAdjust="spacingAndGlyphs" textLength="37" x="505.1667" y="30.1016">group</text><text fill="#666666" font-family="sans-serif" font-size="12" font-style="italic" lengthAdjust="spacingAndGlyphs" textLength="84" x="481.6667" y="44.2344">group of users</text><line style="stroke: #999999; stroke-width: 0.5;" x1="463.5" x2="583.8333" y1="51.7656" y2="51.7656"/><path d="M474.5417,58.6374 C473.2767,58.6374 472.25,59.664 472.25,60.929 C472.25,61.0757 472.2803,61.2013 472.3078,61.3305 L469.5,64.1383 L469.5,65.9716 L472.25,65.9716 L472.25,64.1383 L474.0833,64.1383 L474.0833,63.2216 L474.1411,63.1639 C474.2694,63.1914 474.395,63.2216 474.5426,63.2216 C475.8076,63.2216 476.8343,62.195 476.8343,60.93 C476.8343,59.665 475.8076,58.6383 474.5426,58.6383 M475.0009,59.555 C475.5051,59.555 475.9176,59.9675 475.9176,60.4716 C475.9176,60.9758 475.5051,61.3883 475.0009,61.3883 C474.4968,61.3883 474.0843,60.9758 474.0843,60.4716 C474.0843,59.9675 474.4968,59.555 475.0009,59.555 " fill="#666666" style="stroke: ; stroke-width: 0.0; stroke-dasharray: ;"/><text fill="#000000" font-family="sans-serif" font-size="11" lengthAdjust="spacingAndGlyphs" textLength="0" x="480.8333" y="66.4004"/><text fill="#000000" font-family="sans-serif" font-size="11" font-weight="bold" lengthAdjust="spacingAndGlyphs" textLength="11" x="480.8333" y="66.4004">id</text><text fill="#666666" font-family="sans-serif" font-size="11" lengthAdjust="spacingAndGlyphs" textLength="31" x="491.8333" y="66.4004">&lt;pk&gt;</text><text fill="#000000" font-family="sans-serif" font-size="11" lengthAdjust="spacingAndGlyphs" textLength="0" x="528.8333" y="66.4004"/><text fill="#999999" font-family="sans-serif" font-size="11" lengthAdjust="spacingAndGlyphs" textLength="38" x="528.8333" y="66.4004">integer</text><path d="M469.5,74.3424 L469.5,76.1758 L476.8333,76.1758 L476.8333,74.3424 L469.5,74.3424 " fill="#FFFFFF" style="stroke: ; stroke-width: 0.0; stroke-dasharray: ;"/><text fill="#000000" font-family="sans-serif" font-size="11" lengthAdjust="spacingAndGlyphs" textLength="0" x="480.8333" y="79.3555"/><text fill="#000000" font-family="sans-serif" font-size="11" lengthAdjust="spacingAndGlyphs" textLength="29" x="480.8333" y="79.3555">name</text><text fill="#000000" font-family="sans-serif" font-size="11" lengthAdjust="spacingAndGlyphs" textLength="0" x="515.8333" y="79.3555"/><text fill="#999999" font-family="sans-serif" font-size="11" lengthAdjust="spacingAndGlyphs" textLength="63" x="515.8333" y="79.3555">varchar(32)</text><!--MD5=[e29b4f84b2b68023df94af6d1a040a4f]
class tbl_user_group--><rect fill="#FFFFFF" filter="url(#fuc91xfotrl19)" height="98.0859" id="tbl_user_group" rx="5" ry="5" style="stroke: #999999; stroke-width: 0.5;" width="223.3333" x="381" y="199"/><rect fill="#EEEEEE" height="38.2656" rx="5" ry="5" style="stroke: #EEEEEE; stroke-width: 0.5;" width="223.3333" x="381" y="199"/><rect fill="#EEEEEE" height="5" style="stroke: #EEEEEE; stroke-width: 0.5;" width="223.3333" x="381" y="232.2656"/><rect fill="none" height="98.0859" id="tbl_user_group" rx="5" ry="5" style="stroke: #999999; stroke-width: 0.5;" width="223.3333" x="381" y="199"/><text fill="#000000" font-family="sans-serif" font-size="12" font-weight="bold" lengthAdjust="spacingAndGlyphs" textLength="70" x="457.6667" y="215.6016">user_group</text><text fill="#666666" font-family="sans-serif" font-size="12" font-style="italic" lengthAdjust="spacingAndGlyphs" textLength="121" x="432.1667" y="229.7344">user-group mapping</text><line style="stroke: #999999; stroke-width: 0.5;" x1="382" x2="603.3333" y1="237.2656" y2="237.2656"/><path d="M393.0417,244.1374 C391.7767,244.1374 390.75,245.164 390.75,246.429 C390.75,246.5757 390.7803,246.7013 390.8078,246.8305 L388,249.6383 L388,251.4716 L390.75,251.4716 L390.75,249.6383 L392.5833,249.6383 L392.5833,248.7216 L392.6411,248.6639 C392.7694,248.6914 392.895,248.7216 393.0426,248.7216 C394.3076,248.7216 395.3343,247.695 395.3343,246.43 C395.3343,245.165 394.3076,244.1383 393.0426,244.1383 M393.5009,245.055 C394.0051,245.055 394.4176,245.4675 394.4176,245.9716 C394.4176,246.4758 394.0051,246.8883 393.5009,246.8883 C392.9968,246.8883 392.5843,246.4758 392.5843,245.9716 C392.5843,245.4675 392.9968,245.055 393.5009,245.055 " fill="#666666" style="stroke: ; stroke-width: 0.0; stroke-dasharray: ;"/><text fill="#000000" font-family="sans-serif" font-size="11" lengthAdjust="spacingAndGlyphs" textLength="0" x="399.3333" y="251.9004"/><text fill="#000000" font-family="sans-serif" font-size="11" font-weight="bold" lengthAdjust="spacingAndGlyphs" textLength="106" x="399.3333" y="251.9004">(user_id, group_id)</text><text fill="#666666" font-family="sans-serif" font-size="11" lengthAdjust="spacingAndGlyphs" textLength="31" x="505.3333" y="251.9004">&lt;pk&gt;</text><text fill="#000000" font-family="sans-serif" font-size="11" lengthAdjust="spacingAndGlyphs" textLength="0" x="542.3333" y="251.9004"/><text fill="#999999" font-family="sans-serif" font-size="11" lengthAdjust="spacingAndGlyphs" textLength="56" x="542.3333" y="251.9004">composite</text><path d="M392.0966,257.0924 C391.3138,257.0924 390.7399,257.3271 390.3778,257.6938 C390.0158,258.0604 389.8828,258.5197 389.8333,258.868 L390.75,258.9826 C390.783,258.7443 390.8646,258.527 391.0369,258.3519 C391.2093,258.1778 391.487,258.0082 392.0966,258.0082 C392.7053,258.0082 393.0307,258.1576 393.214,258.3235 C393.3964,258.4894 393.4716,258.6948 393.4716,258.9249 C393.4716,259.6884 393.1847,259.8993 392.7263,260.2999 C392.268,260.7014 391.6373,261.2926 391.6373,262.3624 L391.6373,262.5915 L392.554,262.5915 L392.554,262.3624 C392.554,261.5988 392.8693,261.3879 393.3277,260.9874 C393.786,260.5859 394.3873,259.9946 394.3873,258.9249 C394.3873,258.4858 394.2333,257.9899 393.8428,257.636 C393.4523,257.2813 392.8611,257.0915 392.0957,257.0915 M391.6373,263.5082 L391.6373,264.4249 L392.554,264.4249 L392.554,263.5082 L391.6373,263.5082 " fill="#666666" style="stroke: ; stroke-width: 0.0; stroke-dasharray: ;"/><text fill="#000000" font-family="sans-serif" font-size="11" lengthAdjust="spacingAndGlyphs" textLength="0" x="399.3333" y="264.8555"/><text fill="#000000" font-family="sans-serif" font-size="11" font-style="italic" lengthAdjust="spacingAndGlyphs" textLength="40" x="399.3333" y="264.8555">user_id</text><text fill="#000000" font-family="sans-serif" font-size="11" lengthAdjust="spacingAndGlyphs" textLength="0" x="445.3333" y="264.8555"/><text fill="#999999" font-family="sans-serif" font-size="11" lengthAdjust="spacingAndGlyphs" textLength="38" x="445.3333" y="264.8555">integer</text><path d="M392.0966,270.0475 C391.3138,270.0475 390.7399,270.2822 390.3778,270.6489 C390.0158,271.0155 389.8828,271.4748 389.8333,271.8231 L390.75,271.9377 C390.783,271.6994 390.8646,271.4821 391.0369,271.307 C391.2093,271.1329 391.487,270.9633 392.0966,270.9633 C392.7053,270.9633 393.0307,271.1127 393.214,271.2786 C393.3964,271.4445 393.4716,271.6499 393.4716,271.8799 C393.4716,272.6435 393.1847,272.8544 392.7263,273.2549 C392.268,273.6564 391.6373,274.2477 391.6373,275.3174 L391.6373,275.5466 L392.554,275.5466 L392.554,275.3174 C392.554,274.5539 392.8693,274.343 393.3277,273.9424 C393.786,273.5409 394.3873,272.9497 394.3873,271.8799 C394.3873,271.4409 394.2333,270.9449 393.8428,270.5911 C393.4523,270.2364 392.8611,270.0466 392.0957,270.0466 M391.6373,276.4633 L391.6373,277.3799 L392.554,277.3799 L392.554,276.4633 L391.6373,276.4633 " fill="#666666" style="stroke: ; stroke-width: 0.0; stroke-dasharray: ;"/><text fill="#000000" font-family="sans-serif" font-size="11" lengthAdjust="spacingAndGlyphs" textLength="0" x="399.3333" y="277.8105"/><text fill="#000000" font-family="sans-serif" font-size="11" font-style="italic" lengthAdjust="spacingAndGlyphs" textLength="49" x="399.3333" y="277.8105">group_id</text><text fill="#000000" font-family="sans-serif" font-size="11" lengthAdjust="spacingAndGlyphs" textLength="0" x="454.3333" y="277.8105"/><text fill="#999999" font-family="sans-serif" font-size="11" lengthAdjust="spacingAndGlyphs" textLength="38" x="454.3333" y="277.8105">integer</text><path d="M392.0966,283.0026 C391.3138,283.0026 390.7399,283.2373 390.3778,283.6039 C390.0158,283.9706 389.8828,284.4299 389.8333,284.7782 L390.75,284.8928 C390.783,284.6544 390.8646,284.4372 391.0369,284.2621 C391.2093,284.0879 391.487,283.9184 392.0966,283.9184 C392.7053,283.9184 393.0307,284.0678 393.214,284.2337 C393.3964,284.3996 393.4716,284.6049 393.4716,284.835 C393.4716,285.5986 393.1847,285.8094 392.7263,286.21 C392.268,286.6115 391.6373,287.2028 391.6373,288.2725 L391.6373,288.5017 L392.554,288.5017 L392.554,288.2725 C392.554,287.5089 392.8693,287.2981 393.3277,286.8975 C393.786,286.496 394.3873,285.9048 394.3873,284.835 C394.3873,284.3959 394.2333,283.9 393.8428,283.5462 C393.4523,283.1914 392.8611,283.0017 392.0957,283.0017 M391.6373,289.4184 L391.6373,290.335 L392.554,290.335 L392.554,289.4184 L391.6373,289.4184 " fill="#666666" style="stroke: ; stroke-width: 0.0; stroke-dasharray: ;"/><text fill="#000000" font-family="sans-serif" font-size="11" lengthAdjust="spacingAndGlyphs" textLength="0" x="399.3333" y="290.7656"/><text fill="#000000" font-family="sans-serif" font-size="11" font-style="italic" lengthAdjust="spacingAndGlyphs" textLength="49" x="399.3333" y="290.7656">joined_at</text><text fill="#000000" font-family="sans-serif" font-size="11" lengthAdjust="spacingAndGlyphs" textLength="0" x="454.3333" y="290.7656"/><text fill="#999999" font-family="sans-serif" font-size="11" lengthAdjust="spacingAndGlyphs" textLength="46" x="454.3333" y="290.7656">datetime</text><!--MD5=[3205f6a17511a36e80ab2f2a5df20cce]
link tbl_user to tbl_user_profile--><path d="M245.17,99.53 C244.89,107.05 244.65,114.73 244.5,122 C244.13,139.72 244.3,158.86 244.7,176.7 " fill="none" id="tbl_user-tbl_user_profile" style="stroke: #333333; stroke-width: 2.0;"/><line style="stroke: #333333; stroke-width: 2.0;" x1="248.7807" x2="240.7831" y1="179.6331" y2="179.8293"/><line style="stroke: #333333; stroke-width: 2.0;" x1="248.7071" x2="240.7095" y1="176.634" y2="176.8302"/><line style="stroke: #333333; stroke-width: 2.0;" x1="244.6837" x2="244.88" y1="175.7324" y2="183.73"/><line style="stroke: #333333; stroke-width: 2.0;" x1="241.308" x2="249.302" y1="95.922" y2="96.232"/><line style="stroke: #333333; stroke-width: 2.0;" x1="241.1918" x2="249.1858" y1="98.9198" y2="99.2297"/><line style="stroke: #333333; stroke-width: 2.0;" x1="245.15" x2="245.46" y1="100.074" y2="92.08"/><text fill="#000000" font-family="sans-serif" font-size="13" lengthAdjust="spacingAndGlyphs" textLength="71" x="255" y="135.5684">A user only</text><text fill="#000000" font-family="sans-serif" font-size="13" lengthAdjust="spacingAndGlyphs" textLength="94" x="245.5" y="150.8789">has one profile</text><!--MD5=[a682ed11eb285e1087297c5891c48fdc]
link tbl_user to tbl_session--><path d="M167.15,91.14 C154.16,100.09 141.66,110.41 131.5,122 C110.83,145.58 96.6,178.03 87.65,203.96 " fill="none" id="tbl_user-tbl_session" style="stroke: #333333; stroke-width: 2.0;"/><line style="stroke: #333333; stroke-width: 2.0;" x1="87.5827" x2="90.7289" y1="204.1948" y2="213.687"/><line style="stroke: #333333; stroke-width: 2.0;" x1="87.5827" x2="79.3511" y1="204.1948" y2="209.873"/><line style="stroke: #333333; stroke-width: 2.0;" x1="87.5827" x2="85.04" y1="204.1948" y2="211.78"/><ellipse cx="89.4897" cy="198.506" fill="none" rx="4" ry="4" style="stroke: #333333; stroke-width: 2.0;"/><line style="stroke: #333333; stroke-width: 2.0;" x1="168.4324" x2="172.8733" y1="85.4833" y2="92.1376"/><line style="stroke: #333333; stroke-width: 2.0;" x1="165.9371" x2="170.378" y1="87.1487" y2="93.8029"/><line style="stroke: #333333; stroke-width: 2.0;" x1="167.3258" x2="173.98" y1="91.0309" y2="86.59"/><text fill="#000000" font-family="sans-serif" font-size="13" lengthAdjust="spacingAndGlyphs" textLength="103" x="132.5" y="135.5684">A user may have</text><text fill="#000000" font-family="sans-serif" font-size="13" lengthAdjust="spacingAndGlyphs" textLength="93" x="139.5" y="150.8789">many sessions</text><!--MD5=[89ce5e425db3b5474886c01c45602335]
link tbl_user to tbl_user_group--><path d="M311.64,96.85 C322.69,105.1 334,113.71 344.5,122 C373.46,144.86 404.78,171.09 431.12,193.59 " fill="none" id="tbl_user-tbl_user_group" style="stroke: #333333; stroke-width: 2.0;"/><line style="stroke: #333333; stroke-width: 2.0;" x1="431.2739" x2="441.253" y1="193.726" y2="194.3729"/><line style="stroke: #333333; stroke-width: 2.0;" x1="431.2739" x2="433.447" y1="193.726" y2="203.4871"/><line style="stroke: #333333; stroke-width: 2.0;" x1="431.2739" x2="437.35" y1="193.726" y2="198.93"/><ellipse cx="426.7169" cy="189.823" fill="none" rx="4" ry="4" style="stroke: #333333; stroke-width: 2.0;"/><line style="stroke: #333333; stroke-width: 2.0;" x1="305.988" x2="310.7559" y1="97.6259" y2="91.202"/><line style="stroke: #333333; stroke-width: 2.0;" x1="308.3969" x2="313.1649" y1="99.4139" y2="92.99"/><line style="stroke: #333333; stroke-width: 2.0;" x1="311.5839" x2="305.16" y1="96.798" y2="92.03"/><text fill="#000000" font-family="sans-serif" font-size="13" lengthAdjust="spacingAndGlyphs" textLength="89" x="386" y="135.5684">A user may be</text><text fill="#000000" font-family="sans-serif" font-size="13" lengthAdjust="spacingAndGlyphs" textLength="98" x="383.5" y="150.8789">in many groups</text><!--MD5=[dda6f9149a3b61830003ecb90bddb525]
link tbl_group to tbl_user_group--><path d="M516.69,93.69 C512.18,122.23 506.24,159.92 501.37,190.79 " fill="none" id="tbl_group-tbl_user_group" style="stroke: #333333; stroke-width: 2.0;"/><line style="stroke: #333333; stroke-width: 2.0;" x1="501.3333" x2="506.0171" y1="190.9872" y2="199.8225"/><line style="stroke: #333333; stroke-width: 2.0;" x1="501.3333" x2="494.1629" y1="190.9872" y2="197.9575"/><line style="stroke: #333333; stroke-width: 2.0;" x1="501.3333" x2="500.09" y1="190.9872" y2="198.89"/><ellipse cx="502.2658" cy="185.0601" fill="none" rx="4" ry="4" style="stroke: #333333; stroke-width: 2.0;"/><line style="stroke: #333333; stroke-width: 2.0;" x1="513.387" x2="521.2898" y1="88.9598" y2="90.203"/><line style="stroke: #333333; stroke-width: 2.0;" x1="512.9207" x2="520.8235" y1="91.9233" y2="93.1666"/><line style="stroke: #333333; stroke-width: 2.0;" x1="516.7167" x2="517.96" y1="93.5328" y2="85.63"/><text fill="#000000" font-family="sans-serif" font-size="13" lengthAdjust="spacingAndGlyphs" textLength="80" x="533" y="135.5684">A group may</text><text fill="#000000" font-family="sans-serif" font-size="13" lengthAdjust="spacingAndGlyphs" textLength="123" x="513.5" y="150.8789">contain many users</text><!--MD5=[b251f537357eaa8011107baddc5fc00b]
@startuml
!$THEME_PROP_FLAT=1
'!include ../themes/do-it-yourself.puml
!include db-model-plugin.puml

'skinparam linetype ortho
'skinparam shadowing false

$table("user", "user", "User in our system") {
  $field("id", "integer", $pk=1)
  $field("username", "varchar(32)", $unique=1, $not_null=1)
  $field("password", "varchar(64)", $not_null=1)
}

$table("session", "session", "session for user") {
  $field("id", "integer", $pk=1)
  $field("user_id", "integer", $fk=1, $not_null=1)
}

$table("user_profile", "user_profile", "Some info of user") {
  $field("user_id", "integer", $fk=1)
  $field("gender", "varchar(15)")
  $field("birthday", "datetime")
  - -Notes- -
  Space to enter notes \nabout this table
}

$table("group", "group", "group of users") {
  $field("id", "integer", $pk=1)
  $field("name", "varchar(32)", $not_null=1)
}

$table("user_group", "user_group", "user-group mapping") {
  $field("(user_id, group_id)", "composite", $pk=1)
  $field("user_id", "integer")
  $field("group_id", "integer")
  $field("joined_at", "datetime")
}

' relationships
' one-to-one relationship
$rel("user", "-", "user_profile", "A user only \nhas one profile")
' one-to-many relationship
$rel("user", "<", "session", "A user may have\n many sessions")
' many-to-many relationship
$rel("user", "<", "user_group", "A user may be \nin many groups")
$rel("group", "<", "user_group", "A group may \ncontain many users")

@enduml

@startuml


  skinparam roundcorner 10
  skinparam Class {
    FontStyle<<Table>> plain
    BackgroundColor<<Table>> #ffffff
    HeaderBackgroundColor<<Table>> #eeeeee
    BorderColor<<Table>> #999999
    BorderThickness<<Table>> 0.5
    AttributeFontSize<<Table>> 11
    ArrowColor #333333
    ArrowThickness 2
  }
  skinparam Note {
    BackgroundColor #ffffff
    BorderColor #999999
    BorderThickness 0.5
    FontSize 11
  }

hide methods
hide stereotypes
hide circle






entity tbl_user as "<color:#000000><b>user</b>\n<color:#666666>//User in our system//</color>" << (T, #FFAAAA) Table >> {
  <color:#666666><&key></color> <color:#000000><b>id</b></color><color:#666666><pk></color>  <color:#999999>integer</color>
  <color:#ffffff><&tag></color> <color:#000000><b>username</b></color><color:#666666></color>  <color:#999999>varchar(32)</color>
  <color:#ffffff><&minus></color> <color:#000000>password</color><color:#666666></color>  <color:#999999>varchar(64)</color>
}

entity tbl_session as "<color:#000000><b>session</b>\n<color:#666666>//session for user//</color>" << (T, #FFAAAA) Table >> {
  <color:#666666><&key></color> <color:#000000><b>id</b></color><color:#666666><pk></color>  <color:#999999>integer</color>
  <color:#666666><&link-intact></color> <color:#000000><b>user_id</b></color><color:#666666><fk></color>  <color:#999999>integer</color>
}

entity tbl_user_profile as "<color:#000000><b>user_profile</b>\n<color:#666666>//Some info of user//</color>" << (T, #FFAAAA) Table >> {
  <color:#666666><&link-intact></color> <color:#000000><b>user_id</b></color><color:#666666><fk></color>  <color:#999999>integer</color>
  <color:#666666><&question-mark></color> <color:#000000><i>gender</i></color><color:#666666></color>  <color:#999999>varchar(15)</color>
  <color:#666666><&question-mark></color> <color:#000000><i>birthday</i></color><color:#666666></color>  <color:#999999>datetime</color>
  - -Notes- -
  Space to enter notes \nabout this table
}

entity tbl_group as "<color:#000000><b>group</b>\n<color:#666666>//group of users//</color>" << (T, #FFAAAA) Table >> {
  <color:#666666><&key></color> <color:#000000><b>id</b></color><color:#666666><pk></color>  <color:#999999>integer</color>
  <color:#ffffff><&minus></color> <color:#000000>name</color><color:#666666></color>  <color:#999999>varchar(32)</color>
}

entity tbl_user_group as "<color:#000000><b>user_group</b>\n<color:#666666>//user-group mapping//</color>" << (T, #FFAAAA) Table >> {
  <color:#666666><&key></color> <color:#000000><b>(user_id, group_id)</b></color><color:#666666><pk></color>  <color:#999999>composite</color>
  <color:#666666><&question-mark></color> <color:#000000><i>user_id</i></color><color:#666666></color>  <color:#999999>integer</color>
  <color:#666666><&question-mark></color> <color:#000000><i>group_id</i></color><color:#666666></color>  <color:#999999>integer</color>
  <color:#666666><&question-mark></color> <color:#000000><i>joined_at</i></color><color:#666666></color>  <color:#999999>datetime</color>
}




tbl_user ||- -|| tbl_user_profile :A user only \nhas one profile



tbl_user ||- -o{ tbl_session :A user may have\n many sessions



tbl_user ||- -o{ tbl_user_group :A user may be \nin many groups



tbl_group ||- -o{ tbl_user_group :A group may \ncontain many users

@enduml

PlantUML version 1.2020.15(Sun Jun 28 19:39:45 SGT 2020)
(GPL source distribution)
Java Runtime: OpenJDK Runtime Environment
JVM: OpenJDK 64-Bit Server VM
Default Encoding: UTF-8
Language: en
Country: SG
--></g></svg>