<?xml version="1.0" encoding="UTF-8" standalone="no"?><svg xmlns="http://www.w3.org/2000/svg" xmlns:xlink="http://www.w3.org/1999/xlink" contentScriptType="application/ecmascript" contentStyleType="text/css" height="323px" preserveAspectRatio="none" style="width:646px;height:323px;" version="1.1" viewBox="0 0 646 323" width="646px" zoomAndPan="magnify"><defs><filter height="300%" id="f1u5wxgeb7adie" width="300%" x="-1" y="-1"><feGaussianBlur result="blurOut" stdDeviation="2.0"/><feColorMatrix in="blurOut" result="blurOut2" type="matrix" values="0 0 0 0 0 0 0 0 0 0 0 0 0 0 0 0 0 0 .4 0"/><feOffset dx="4.0" dy="4.0" in="blurOut2" result="blurOut3"/><feBlend in="SourceGraphic" in2="blurOut3" mode="normal"/></filter></defs><g><!--MD5=[e59cf999063292dce8d6ea34dd10a338]
class user--><rect fill="#FFFFFF" filter="url(#f1u5wxgeb7adie)" height="85.1309" id="user" rx="5" ry="5" style="stroke: #999999; stroke-width: 0.5;" width="146.3333" x="173.5" y="8"/><rect fill="#EEEEEE" height="38.2656" rx="5" ry="5" style="stroke: #EEEEEE; stroke-width: 0.5;" width="146.3333" x="173.5" y="8"/><rect fill="#EEEEEE" height="5" style="stroke: #EEEEEE; stroke-width: 0.5;" width="146.3333" x="173.5" y="41.2656"/><rect fill="none" height="85.1309" id="user" rx="5" ry="5" style="stroke: #999999; stroke-width: 0.5;" width="146.3333" x="173.5" y="8"/><text fill="#000000" font-family="sans-serif" font-size="12" font-weight="bold" lengthAdjust="spacingAndGlyphs" textLength="27" x="233.1667" y="24.6016">user</text><text fill="#666666" font-family="sans-serif" font-size="12" font-style="italic" lengthAdjust="spacingAndGlyphs" textLength="107" x="193.1667" y="38.7344">User in our system</text><line style="stroke: #999999; stroke-width: 0.5;" x1="174.5" x2="318.8333" y1="46.2656" y2="46.2656"/><path d="M185.5417,53.1374 C184.2767,53.1374 183.25,54.164 183.25,55.429 C183.25,55.5757 183.2803,55.7013 183.3078,55.8305 L180.5,58.6383 L180.5,60.4716 L183.25,60.4716 L183.25,58.6383 L185.0833,58.6383 L185.0833,57.7216 L185.1411,57.6639 C185.2694,57.6914 185.395,57.7216 185.5426,57.7216 C186.8076,57.7216 187.8343,56.695 187.8343,55.43 C187.8343,54.165 186.8076,53.1383 185.5426,53.1383 M186.0009,54.055 C186.5051,54.055 186.9176,54.4675 186.9176,54.9716 C186.9176,55.4758 186.5051,55.8883 186.0009,55.8883 C185.4968,55.8883 185.0843,55.4758 185.0843,54.9716 C185.0843,54.4675 185.4968,54.055 186.0009,54.055 " fill="#666666" style="stroke: ; stroke-width: 0.0; stroke-dasharray: ;"/><text fill="#000000" font-family="sans-serif" font-size="11" lengthAdjust="spacingAndGlyphs" textLength="0" x="191.8333" y="60.9004"/><text fill="#000000" font-family="sans-serif" font-size="11" font-weight="bold" lengthAdjust="spacingAndGlyphs" textLength="11" x="191.8333" y="60.9004">id</text><text fill="#666666" font-family="sans-serif" font-size="11" lengthAdjust="spacingAndGlyphs" textLength="31" x="202.8333" y="60.9004">&lt;pk&gt;</text><text fill="#000000" font-family="sans-serif" font-size="11" lengthAdjust="spacingAndGlyphs" textLength="0" x="239.8333" y="60.9004"/><text fill="#999999" font-family="sans-serif" font-size="11" lengthAdjust="spacingAndGlyphs" textLength="38" x="239.8333" y="60.9004">integer</text><path d="M180.5,66.0924 L180.5,68.8424 L185.0833,73.4258 L187.8333,70.6758 L183.25,66.0924 L180.5,66.0924 M182.3333,67.0091 C182.8375,67.0091 183.25,67.4216 183.25,67.9258 C183.25,68.4299 182.8375,68.8424 182.3333,68.8424 C181.8292,68.8424 181.4167,68.4299 181.4167,67.9258 C181.4167,67.4216 181.8292,67.0091 182.3333,67.0091 " fill="#FFFFFF" style="stroke: ; stroke-width: 0.0; stroke-dasharray: ;"/><text fill="#000000" font-family="sans-serif" font-size="11" lengthAdjust="spacingAndGlyphs" textLength="0" x="191.8333" y="73.8555"/><text fill="#000000" font-family="sans-serif" font-size="11" font-style="italic" lengthAdjust="spacingAndGlyphs" textLength="53" x="191.8333" y="73.8555">username</text><text fill="#000000" font-family="sans-serif" font-size="11" lengthAdjust="spacingAndGlyphs" textLength="0" x="250.8333" y="73.8555"/><text fill="#999999" font-family="sans-serif" font-size="11" lengthAdjust="spacingAndGlyphs" textLength="63" x="250.8333" y="73.8555">varchar(32)</text><path d="M180.5,81.7975 L180.5,83.6309 L187.8333,83.6309 L187.8333,81.7975 L180.5,81.7975 " fill="#FFFFFF" style="stroke: ; stroke-width: 0.0; stroke-dasharray: ;"/><text fill="#000000" font-family="sans-serif" font-size="11" lengthAdjust="spacingAndGlyphs" textLength="0" x="191.8333" y="86.8105"/><text fill="#000000" font-family="sans-serif" font-size="11" lengthAdjust="spacingAndGlyphs" text-decoration="underline" textLength="52" x="191.8333" y="86.8105">password</text><text fill="#000000" font-family="sans-serif" font-size="11" lengthAdjust="spacingAndGlyphs" textLength="0" x="249.8333" y="86.8105"/><text fill="#999999" font-family="sans-serif" font-size="11" lengthAdjust="spacingAndGlyphs" textLength="63" x="249.8333" y="86.8105">varchar(64)</text><!--MD5=[d39b0e5acf37d349c49873ef54346d0c]
class session--><rect fill="#FFFFFF" filter="url(#f1u5wxgeb7adie)" height="72.1758" id="session" rx="5" ry="5" style="stroke: #999999; stroke-width: 0.5;" width="137.3333" x="6" y="213"/><rect fill="#EEEEEE" height="38.2656" rx="5" ry="5" style="stroke: #EEEEEE; stroke-width: 0.5;" width="137.3333" x="6" y="213"/><rect fill="#EEEEEE" height="5" style="stroke: #EEEEEE; stroke-width: 0.5;" width="137.3333" x="6" y="246.2656"/><rect fill="none" height="72.1758" id="session" rx="5" ry="5" style="stroke: #999999; stroke-width: 0.5;" width="137.3333" x="6" y="213"/><text fill="#000000" font-family="sans-serif" font-size="12" font-weight="bold" lengthAdjust="spacingAndGlyphs" textLength="48" x="50.6667" y="229.6016">session</text><text fill="#666666" font-family="sans-serif" font-size="12" font-style="italic" lengthAdjust="spacingAndGlyphs" textLength="91" x="29.1667" y="243.7344">session for user</text><line style="stroke: #999999; stroke-width: 0.5;" x1="7" x2="142.3333" y1="251.2656" y2="251.2656"/><path d="M18.0417,258.1374 C16.7767,258.1374 15.75,259.164 15.75,260.429 C15.75,260.5757 15.7802,260.7013 15.8078,260.8305 L13,263.6383 L13,265.4716 L15.75,265.4716 L15.75,263.6383 L17.5833,263.6383 L17.5833,262.7216 L17.6411,262.6639 C17.7694,262.6914 17.895,262.7216 18.0426,262.7216 C19.3076,262.7216 20.3342,261.695 20.3342,260.43 C20.3342,259.165 19.3076,258.1383 18.0426,258.1383 M18.5009,259.055 C19.0051,259.055 19.4176,259.4675 19.4176,259.9716 C19.4176,260.4758 19.0051,260.8883 18.5009,260.8883 C17.9968,260.8883 17.5843,260.4758 17.5843,259.9716 C17.5843,259.4675 17.9968,259.055 18.5009,259.055 " fill="#666666" style="stroke: ; stroke-width: 0.0; stroke-dasharray: ;"/><text fill="#000000" font-family="sans-serif" font-size="11" lengthAdjust="spacingAndGlyphs" textLength="0" x="24.3333" y="265.9004"/><text fill="#000000" font-family="sans-serif" font-size="11" font-weight="bold" lengthAdjust="spacingAndGlyphs" textLength="11" x="24.3333" y="265.9004">id</text><text fill="#666666" font-family="sans-serif" font-size="11" lengthAdjust="spacingAndGlyphs" textLength="31" x="35.3333" y="265.9004">&lt;pk&gt;</text><text fill="#000000" font-family="sans-serif" font-size="11" lengthAdjust="spacingAndGlyphs" textLength="0" x="72.3333" y="265.9004"/><text fill="#999999" font-family="sans-serif" font-size="11" lengthAdjust="spacingAndGlyphs" textLength="38" x="72.3333" y="265.9004">integer</text><path d="M18.3854,271.1209 C18.2167,271.13 18.0609,271.1484 17.8987,271.207 C17.6512,271.2941 17.4119,271.4362 17.2112,271.6369 A0.4583,0.4583 0 1 0 17.8418,272.2676 C17.9344,272.175 18.0664,272.109 18.1856,272.0669 C18.5083,271.9514 18.9006,272.0082 19.16,272.2676 C19.5221,272.6242 19.5267,273.2182 19.16,273.5858 L17.785,274.9608 C17.3872,275.3586 17.0526,275.4035 16.8106,275.3907 C16.5686,275.3769 16.4384,275.2761 16.4384,275.2761 A0.462,0.462 0 1 0 15.9801,276.0782 C16.2918,276.2817 16.2918,276.2817 16.7538,276.3074 C17.2158,276.333 17.851,276.1561 18.4157,275.5914 L19.7907,274.2164 C20.5057,273.5014 20.5103,272.3455 19.7907,271.6379 C19.5349,271.3821 19.2352,271.2235 18.9024,271.1511 C18.7365,271.1154 18.555,271.1135 18.3863,271.1227 M16.553,273.2429 C16.0938,273.2255 15.4658,273.385 14.9204,273.9304 L13.5454,275.3054 C12.8304,276.0204 12.8258,277.1764 13.5454,277.884 C14.056,278.3946 14.7875,278.5459 15.4365,278.3139 C15.684,278.2269 15.9233,278.0848 16.124,277.884 A0.4583,0.4583 0 1 0 15.4933,277.2534 C15.4008,277.3459 15.2688,277.4119 15.1496,277.4541 C14.8269,277.5696 14.4346,277.5128 14.1752,277.2534 C13.8131,276.8968 13.8085,276.3028 14.1752,275.9352 L15.5502,274.5602 C15.9214,274.1889 16.2395,274.1495 16.4953,274.1587 C16.751,274.1688 16.9252,274.2449 16.9252,274.2449 A0.4583,0.4583 0 1 0 17.3267,273.4428 C17.0123,273.2604 17.0123,273.2604 16.553,273.242 " fill="#666666" style="stroke: ; stroke-width: 0.0; stroke-dasharray: ;"/><text fill="#000000" font-family="sans-serif" font-size="11" lengthAdjust="spacingAndGlyphs" textLength="0" x="24.3333" y="278.8555"/><text fill="#000000" font-family="sans-serif" font-size="11" font-weight="bold" lengthAdjust="spacingAndGlyphs" textLength="41" x="24.3333" y="278.8555">user_id</text><text fill="#666666" font-family="sans-serif" font-size="11" lengthAdjust="spacingAndGlyphs" textLength="28" x="65.3333" y="278.8555">&lt;fk&gt;</text><text fill="#000000" font-family="sans-serif" font-size="11" lengthAdjust="spacingAndGlyphs" textLength="0" x="99.3333" y="278.8555"/><text fill="#999999" font-family="sans-serif" font-size="11" lengthAdjust="spacingAndGlyphs" textLength="38" x="99.3333" y="278.8555">integer</text><!--MD5=[53236c88b4dead147f6a095194f43340]
class user_profile--><rect fill="#FFFFFF" filter="url(#f1u5wxgeb7adie)" height="127.9961" id="user_profile" rx="5" ry="5" style="stroke: #999999; stroke-width: 0.5;" width="137.3333" x="178" y="185"/><rect fill="#EEEEEE" height="38.2656" rx="5" ry="5" style="stroke: #EEEEEE; stroke-width: 0.5;" width="137.3333" x="178" y="185"/><rect fill="#EEEEEE" height="5" style="stroke: #EEEEEE; stroke-width: 0.5;" width="137.3333" x="178" y="218.2656"/><rect fill="none" height="127.9961" id="user_profile" rx="5" ry="5" style="stroke: #999999; stroke-width: 0.5;" width="137.3333" x="178" y="185"/><text fill="#000000" font-family="sans-serif" font-size="12" font-weight="bold" lengthAdjust="spacingAndGlyphs" textLength="74" x="209.6667" y="201.6016">user_profile</text><text fill="#666666" font-family="sans-serif" font-size="12" font-style="italic" lengthAdjust="spacingAndGlyphs" textLength="100" x="196.6667" y="215.7344">Some info of user</text><line style="stroke: #999999; stroke-width: 1.5;" x1="179" x2="314.3333" y1="223.2656" y2="223.2656"/><path d="M190.3854,230.1658 C190.2168,230.175 190.0609,230.1933 189.8987,230.252 C189.6512,230.339 189.4119,230.4811 189.2112,230.6819 A0.4583,0.4583 0 1 0 189.8418,231.3125 C189.9344,231.22 190.0664,231.154 190.1856,231.1118 C190.5083,230.9963 190.9006,231.0531 191.16,231.3125 C191.5221,231.6691 191.5267,232.2631 191.16,232.6307 L189.785,234.0057 C189.3872,234.4035 189.0526,234.4485 188.8106,234.4356 C188.5686,234.4219 188.4384,234.321 188.4384,234.321 A0.462,0.462 0 1 0 187.9801,235.1231 C188.2918,235.3266 188.2918,235.3266 188.7538,235.3523 C189.2158,235.378 189.851,235.201 190.4157,234.6364 L191.7907,233.2614 C192.5057,232.5464 192.5102,231.3905 191.7907,230.6828 C191.5349,230.427 191.2352,230.2685 190.9024,230.196 C190.7365,230.1603 190.555,230.1585 190.3863,230.1676 M188.553,232.2879 C188.0938,232.2705 187.4658,232.43 186.9204,232.9754 L185.5454,234.3504 C184.8304,235.0654 184.8258,236.2213 185.5454,236.929 C186.056,237.4395 186.7875,237.5908 187.4365,237.3589 C187.684,237.2718 187.9233,237.1297 188.124,236.929 A0.4583,0.4583 0 1 0 187.4933,236.2983 C187.4008,236.3909 187.2688,236.4569 187.1496,236.499 C186.8269,236.6145 186.4346,236.5577 186.1752,236.2983 C185.8131,235.9417 185.8085,235.3477 186.1752,234.9801 L187.5502,233.6051 C187.9214,233.2339 188.2395,233.1945 188.4953,233.2036 C188.751,233.2137 188.9252,233.2898 188.9252,233.2898 A0.4583,0.4583 0 1 0 189.3267,232.4877 C189.0123,232.3053 189.0123,232.3053 188.553,232.287 " fill="#666666" style="stroke: ; stroke-width: 0.0; stroke-dasharray: ;"/><text fill="#000000" font-family="sans-serif" font-size="11" lengthAdjust="spacingAndGlyphs" textLength="0" x="196.3333" y="237.9004"/><text fill="#000000" font-family="sans-serif" font-size="11" font-weight="bold" lengthAdjust="spacingAndGlyphs" textLength="41" x="196.3333" y="237.9004">user_id</text><text fill="#666666" font-family="sans-serif" font-size="11" lengthAdjust="spacingAndGlyphs" textLength="28" x="237.3333" y="237.9004">&lt;fk&gt;</text><text fill="#000000" font-family="sans-serif" font-size="11" lengthAdjust="spacingAndGlyphs" textLength="0" x="271.3333" y="237.9004"/><text fill="#999999" font-family="sans-serif" font-size="11" lengthAdjust="spacingAndGlyphs" textLength="38" x="271.3333" y="237.9004">integer</text><path d="M189.0966,243.0924 C188.3138,243.0924 187.7399,243.3271 187.3778,243.6938 C187.0158,244.0604 186.8828,244.5197 186.8333,244.868 L187.75,244.9826 C187.783,244.7443 187.8646,244.527 188.0369,244.3519 C188.2093,244.1778 188.487,244.0082 189.0966,244.0082 C189.7053,244.0082 190.0307,244.1576 190.214,244.3235 C190.3964,244.4894 190.4716,244.6948 190.4716,244.9249 C190.4716,245.6884 190.1847,245.8993 189.7263,246.2999 C189.268,246.7014 188.6373,247.2926 188.6373,248.3624 L188.6373,248.5915 L189.554,248.5915 L189.554,248.3624 C189.554,247.5988 189.8693,247.3879 190.3277,246.9874 C190.786,246.5859 191.3873,245.9946 191.3873,244.9249 C191.3873,244.4858 191.2333,243.9899 190.8428,243.636 C190.4523,243.2813 189.8611,243.0915 189.0957,243.0915 M188.6373,249.5082 L188.6373,250.4249 L189.554,250.4249 L189.554,249.5082 L188.6373,249.5082 " fill="#FFFFFF" style="stroke: ; stroke-width: 0.0; stroke-dasharray: ;"/><text fill="#000000" font-family="sans-serif" font-size="11" lengthAdjust="spacingAndGlyphs" textLength="0" x="196.3333" y="250.8555"/><text fill="#000000" font-family="sans-serif" font-size="11" lengthAdjust="spacingAndGlyphs" textLength="38" x="196.3333" y="250.8555">gender</text><text fill="#000000" font-family="sans-serif" font-size="11" lengthAdjust="spacingAndGlyphs" textLength="0" x="240.3333" y="250.8555"/><text fill="#999999" font-family="sans-serif" font-size="11" lengthAdjust="spacingAndGlyphs" textLength="63" x="240.3333" y="250.8555">varchar(15)</text><path d="M189.0966,256.0475 C188.3138,256.0475 187.7399,256.2822 187.3778,256.6489 C187.0158,257.0155 186.8828,257.4748 186.8333,257.8231 L187.75,257.9377 C187.783,257.6994 187.8646,257.4821 188.0369,257.307 C188.2093,257.1329 188.487,256.9633 189.0966,256.9633 C189.7053,256.9633 190.0307,257.1127 190.214,257.2786 C190.3964,257.4445 190.4716,257.6499 190.4716,257.8799 C190.4716,258.6435 190.1847,258.8544 189.7263,259.2549 C189.268,259.6564 188.6373,260.2477 188.6373,261.3174 L188.6373,261.5466 L189.554,261.5466 L189.554,261.3174 C189.554,260.5539 189.8693,260.343 190.3277,259.9424 C190.786,259.5409 191.3873,258.9497 191.3873,257.8799 C191.3873,257.4409 191.2333,256.9449 190.8428,256.5911 C190.4523,256.2364 189.8611,256.0466 189.0957,256.0466 M188.6373,262.4633 L188.6373,263.3799 L189.554,263.3799 L189.554,262.4633 L188.6373,262.4633 " fill="#FFFFFF" style="stroke: ; stroke-width: 0.0; stroke-dasharray: ;"/><text fill="#000000" font-family="sans-serif" font-size="11" lengthAdjust="spacingAndGlyphs" textLength="0" x="196.3333" y="263.8105"/><text fill="#000000" font-family="sans-serif" font-size="11" lengthAdjust="spacingAndGlyphs" textLength="45" x="196.3333" y="263.8105">birthday</text><text fill="#000000" font-family="sans-serif" font-size="11" lengthAdjust="spacingAndGlyphs" textLength="0" x="247.3333" y="263.8105"/><text fill="#999999" font-family="sans-serif" font-size="11" lengthAdjust="spacingAndGlyphs" textLength="46" x="247.3333" y="263.8105">datetime</text><text fill="#000000" font-family="sans-serif" font-size="11" lengthAdjust="spacingAndGlyphs" textLength="109" x="184" y="293.7207">Space to enter notes</text><text fill="#000000" font-family="sans-serif" font-size="11" lengthAdjust="spacingAndGlyphs" textLength="83" x="184" y="306.6758">about this table</text><line style="stroke: #999999; stroke-width: 1.0;" x1="179" x2="231.1667" y1="276.6084" y2="276.6084"/><text fill="#000000" font-family="sans-serif" font-size="11" lengthAdjust="spacingAndGlyphs" textLength="31" x="231.1667" y="280.2656">Notes</text><line style="stroke: #999999; stroke-width: 1.0;" x1="262.1667" x2="314.3333" y1="276.6084" y2="276.6084"/><!--MD5=[83a7e20887a0e66b3fb3b0edc8d801ef]
class group--><rect fill="#FFFFFF" filter="url(#f1u5wxgeb7adie)" height="72.1758" id="group" rx="5" ry="5" style="stroke: #999999; stroke-width: 0.5;" width="122.3333" x="461.5" y="14.5"/><rect fill="#EEEEEE" height="38.2656" rx="5" ry="5" style="stroke: #EEEEEE; stroke-width: 0.5;" width="122.3333" x="461.5" y="14.5"/><rect fill="#EEEEEE" height="5" style="stroke: #EEEEEE; stroke-width: 0.5;" width="122.3333" x="461.5" y="47.7656"/><rect fill="none" height="72.1758" id="group" rx="5" ry="5" style="stroke: #999999; stroke-width: 0.5;" width="122.3333" x="461.5" y="14.5"/><text fill="#000000" font-family="sans-serif" font-size="12" font-weight="bold" lengthAdjust="spacingAndGlyphs" textLength="37" x="504.1667" y="31.1016">group</text><text fill="#666666" font-family="sans-serif" font-size="12" font-style="italic" lengthAdjust="spacingAndGlyphs" textLength="84" x="480.6667" y="45.2344">group of users</text><line style="stroke: #999999; stroke-width: 0.5;" x1="462.5" x2="582.8333" y1="52.7656" y2="52.7656"/><path d="M473.5417,59.6374 C472.2767,59.6374 471.25,60.664 471.25,61.929 C471.25,62.0757 471.2803,62.2013 471.3078,62.3305 L468.5,65.1383 L468.5,66.9716 L471.25,66.9716 L471.25,65.1383 L473.0833,65.1383 L473.0833,64.2216 L473.1411,64.1639 C473.2694,64.1914 473.395,64.2216 473.5426,64.2216 C474.8076,64.2216 475.8343,63.195 475.8343,61.93 C475.8343,60.665 474.8076,59.6383 473.5426,59.6383 M474.0009,60.555 C474.5051,60.555 474.9176,60.9675 474.9176,61.4716 C474.9176,61.9758 474.5051,62.3883 474.0009,62.3883 C473.4968,62.3883 473.0843,61.9758 473.0843,61.4716 C473.0843,60.9675 473.4968,60.555 474.0009,60.555 " fill="#666666" style="stroke: ; stroke-width: 0.0; stroke-dasharray: ;"/><text fill="#000000" font-family="sans-serif" font-size="11" lengthAdjust="spacingAndGlyphs" textLength="0" x="479.8333" y="67.4004"/><text fill="#000000" font-family="sans-serif" font-size="11" font-weight="bold" lengthAdjust="spacingAndGlyphs" textLength="11" x="479.8333" y="67.4004">id</text><text fill="#666666" font-family="sans-serif" font-size="11" lengthAdjust="spacingAndGlyphs" textLength="31" x="490.8333" y="67.4004">&lt;pk&gt;</text><text fill="#000000" font-family="sans-serif" font-size="11" lengthAdjust="spacingAndGlyphs" textLength="0" x="527.8333" y="67.4004"/><text fill="#999999" font-family="sans-serif" font-size="11" lengthAdjust="spacingAndGlyphs" textLength="38" x="527.8333" y="67.4004">integer</text><path d="M468.5,75.3424 L468.5,77.1758 L475.8333,77.1758 L475.8333,75.3424 L468.5,75.3424 " fill="#FFFFFF" style="stroke: ; stroke-width: 0.0; stroke-dasharray: ;"/><text fill="#000000" font-family="sans-serif" font-size="11" lengthAdjust="spacingAndGlyphs" textLength="0" x="479.8333" y="80.3555"/><text fill="#000000" font-family="sans-serif" font-size="11" lengthAdjust="spacingAndGlyphs" text-decoration="underline" textLength="29" x="479.8333" y="80.3555">name</text><text fill="#000000" font-family="sans-serif" font-size="11" lengthAdjust="spacingAndGlyphs" textLength="0" x="514.8333" y="80.3555"/><text fill="#999999" font-family="sans-serif" font-size="11" lengthAdjust="spacingAndGlyphs" textLength="63" x="514.8333" y="80.3555">varchar(32)</text><!--MD5=[0c6f744481771be951548fc66c37295a]
class user_group--><rect fill="#FFFFFF" filter="url(#f1u5wxgeb7adie)" height="98.0859" id="user_group" rx="5" ry="5" style="stroke: #999999; stroke-width: 0.5;" width="223.3333" x="380" y="200"/><rect fill="#EEEEEE" height="38.2656" rx="5" ry="5" style="stroke: #EEEEEE; stroke-width: 0.5;" width="223.3333" x="380" y="200"/><rect fill="#EEEEEE" height="5" style="stroke: #EEEEEE; stroke-width: 0.5;" width="223.3333" x="380" y="233.2656"/><rect fill="none" height="98.0859" id="user_group" rx="5" ry="5" style="stroke: #999999; stroke-width: 0.5;" width="223.3333" x="380" y="200"/><text fill="#000000" font-family="sans-serif" font-size="12" font-weight="bold" lengthAdjust="spacingAndGlyphs" textLength="70" x="456.6667" y="216.6016">user_group</text><text fill="#666666" font-family="sans-serif" font-size="12" font-style="italic" lengthAdjust="spacingAndGlyphs" textLength="121" x="431.1667" y="230.7344">user-group mapping</text><line style="stroke: #999999; stroke-width: 0.5;" x1="381" x2="602.3333" y1="238.2656" y2="238.2656"/><path d="M392.0417,245.1374 C390.7767,245.1374 389.75,246.164 389.75,247.429 C389.75,247.5757 389.7803,247.7013 389.8078,247.8305 L387,250.6383 L387,252.4716 L389.75,252.4716 L389.75,250.6383 L391.5833,250.6383 L391.5833,249.7216 L391.6411,249.6639 C391.7694,249.6914 391.895,249.7216 392.0426,249.7216 C393.3076,249.7216 394.3343,248.695 394.3343,247.43 C394.3343,246.165 393.3076,245.1383 392.0426,245.1383 M392.5009,246.055 C393.0051,246.055 393.4176,246.4675 393.4176,246.9716 C393.4176,247.4758 393.0051,247.8883 392.5009,247.8883 C391.9968,247.8883 391.5843,247.4758 391.5843,246.9716 C391.5843,246.4675 391.9968,246.055 392.5009,246.055 " fill="#666666" style="stroke: ; stroke-width: 0.0; stroke-dasharray: ;"/><text fill="#000000" font-family="sans-serif" font-size="11" lengthAdjust="spacingAndGlyphs" textLength="0" x="398.3333" y="252.9004"/><text fill="#000000" font-family="sans-serif" font-size="11" font-weight="bold" lengthAdjust="spacingAndGlyphs" textLength="106" x="398.3333" y="252.9004">(user_id, group_id)</text><text fill="#666666" font-family="sans-serif" font-size="11" lengthAdjust="spacingAndGlyphs" textLength="31" x="504.3333" y="252.9004">&lt;pk&gt;</text><text fill="#000000" font-family="sans-serif" font-size="11" lengthAdjust="spacingAndGlyphs" textLength="0" x="541.3333" y="252.9004"/><text fill="#999999" font-family="sans-serif" font-size="11" lengthAdjust="spacingAndGlyphs" textLength="56" x="541.3333" y="252.9004">composite</text><path d="M391.0966,258.0924 C390.3138,258.0924 389.7399,258.3271 389.3778,258.6938 C389.0158,259.0604 388.8828,259.5197 388.8333,259.868 L389.75,259.9826 C389.783,259.7443 389.8646,259.527 390.0369,259.3519 C390.2093,259.1778 390.487,259.0082 391.0966,259.0082 C391.7053,259.0082 392.0307,259.1576 392.214,259.3235 C392.3964,259.4894 392.4716,259.6948 392.4716,259.9249 C392.4716,260.6884 392.1847,260.8993 391.7263,261.2999 C391.268,261.7014 390.6373,262.2926 390.6373,263.3624 L390.6373,263.5915 L391.554,263.5915 L391.554,263.3624 C391.554,262.5988 391.8693,262.3879 392.3277,261.9874 C392.786,261.5859 393.3873,260.9946 393.3873,259.9249 C393.3873,259.4858 393.2333,258.9899 392.8428,258.636 C392.4523,258.2813 391.8611,258.0915 391.0957,258.0915 M390.6373,264.5082 L390.6373,265.4249 L391.554,265.4249 L391.554,264.5082 L390.6373,264.5082 " fill="#FFFFFF" style="stroke: ; stroke-width: 0.0; stroke-dasharray: ;"/><text fill="#000000" font-family="sans-serif" font-size="11" lengthAdjust="spacingAndGlyphs" textLength="0" x="398.3333" y="265.8555"/><text fill="#000000" font-family="sans-serif" font-size="11" lengthAdjust="spacingAndGlyphs" textLength="40" x="398.3333" y="265.8555">user_id</text><text fill="#000000" font-family="sans-serif" font-size="11" lengthAdjust="spacingAndGlyphs" textLength="0" x="444.3333" y="265.8555"/><text fill="#999999" font-family="sans-serif" font-size="11" lengthAdjust="spacingAndGlyphs" textLength="38" x="444.3333" y="265.8555">integer</text><path d="M391.0966,271.0475 C390.3138,271.0475 389.7399,271.2822 389.3778,271.6489 C389.0158,272.0155 388.8828,272.4748 388.8333,272.8231 L389.75,272.9377 C389.783,272.6994 389.8646,272.4821 390.0369,272.307 C390.2093,272.1329 390.487,271.9633 391.0966,271.9633 C391.7053,271.9633 392.0307,272.1127 392.214,272.2786 C392.3964,272.4445 392.4716,272.6499 392.4716,272.8799 C392.4716,273.6435 392.1847,273.8544 391.7263,274.2549 C391.268,274.6564 390.6373,275.2477 390.6373,276.3174 L390.6373,276.5466 L391.554,276.5466 L391.554,276.3174 C391.554,275.5539 391.8693,275.343 392.3277,274.9424 C392.786,274.5409 393.3873,273.9497 393.3873,272.8799 C393.3873,272.4409 393.2333,271.9449 392.8428,271.5911 C392.4523,271.2364 391.8611,271.0466 391.0957,271.0466 M390.6373,277.4633 L390.6373,278.3799 L391.554,278.3799 L391.554,277.4633 L390.6373,277.4633 " fill="#FFFFFF" style="stroke: ; stroke-width: 0.0; stroke-dasharray: ;"/><text fill="#000000" font-family="sans-serif" font-size="11" lengthAdjust="spacingAndGlyphs" textLength="0" x="398.3333" y="278.8105"/><text fill="#000000" font-family="sans-serif" font-size="11" lengthAdjust="spacingAndGlyphs" textLength="49" x="398.3333" y="278.8105">group_id</text><text fill="#000000" font-family="sans-serif" font-size="11" lengthAdjust="spacingAndGlyphs" textLength="0" x="453.3333" y="278.8105"/><text fill="#999999" font-family="sans-serif" font-size="11" lengthAdjust="spacingAndGlyphs" textLength="38" x="453.3333" y="278.8105">integer</text><path d="M391.0966,284.0026 C390.3138,284.0026 389.7399,284.2373 389.3778,284.6039 C389.0158,284.9706 388.8828,285.4299 388.8333,285.7782 L389.75,285.8928 C389.783,285.6544 389.8646,285.4372 390.0369,285.2621 C390.2093,285.0879 390.487,284.9184 391.0966,284.9184 C391.7053,284.9184 392.0307,285.0678 392.214,285.2337 C392.3964,285.3996 392.4716,285.6049 392.4716,285.835 C392.4716,286.5986 392.1847,286.8094 391.7263,287.21 C391.268,287.6115 390.6373,288.2028 390.6373,289.2725 L390.6373,289.5017 L391.554,289.5017 L391.554,289.2725 C391.554,288.5089 391.8693,288.2981 392.3277,287.8975 C392.786,287.496 393.3873,286.9048 393.3873,285.835 C393.3873,285.3959 393.2333,284.9 392.8428,284.5462 C392.4523,284.1914 391.8611,284.0017 391.0957,284.0017 M390.6373,290.4184 L390.6373,291.335 L391.554,291.335 L391.554,290.4184 L390.6373,290.4184 " fill="#FFFFFF" style="stroke: ; stroke-width: 0.0; stroke-dasharray: ;"/><text fill="#000000" font-family="sans-serif" font-size="11" lengthAdjust="spacingAndGlyphs" textLength="0" x="398.3333" y="291.7656"/><text fill="#000000" font-family="sans-serif" font-size="11" lengthAdjust="spacingAndGlyphs" textLength="49" x="398.3333" y="291.7656">joined_at</text><text fill="#000000" font-family="sans-serif" font-size="11" lengthAdjust="spacingAndGlyphs" textLength="0" x="453.3333" y="291.7656"/><text fill="#999999" font-family="sans-serif" font-size="11" lengthAdjust="spacingAndGlyphs" textLength="46" x="453.3333" y="291.7656">datetime</text><!--MD5=[7c89258488ef4ac21666d120e91d79dc]
link user to user_profile--><path d="M244.46,93.08 C244.06,102.89 243.7,113.31 243.5,123 C243.08,143.08 243.35,164.96 243.88,184.73 " fill="none" id="user-user_profile" style="stroke: #333333; stroke-width: 2.0;"/><text fill="#000000" font-family="sans-serif" font-size="13" lengthAdjust="spacingAndGlyphs" textLength="71" x="254" y="136.5684">A user only</text><text fill="#000000" font-family="sans-serif" font-size="13" lengthAdjust="spacingAndGlyphs" textLength="94" x="244.5" y="151.8789">has one profile</text><text fill="#000000" font-family="sans-serif" font-size="13" lengthAdjust="spacingAndGlyphs" textLength="8" x="235.4708" y="113.6442">1</text><text fill="#000000" font-family="sans-serif" font-size="13" lengthAdjust="spacingAndGlyphs" textLength="8" x="235.1377" y="174.4657">1</text><!--MD5=[ec20515c3853607e150173ab957f5f24]
link user to session--><path d="M173.28,87.4 C157.79,97.38 142.51,109.3 130.5,123 C107.69,149.02 92.72,185.84 84.04,212.78 " fill="none" id="user-session" style="stroke: #333333; stroke-width: 2.0;"/><text fill="#000000" font-family="sans-serif" font-size="13" lengthAdjust="spacingAndGlyphs" textLength="103" x="131.5" y="136.5684">A user may have</text><text fill="#000000" font-family="sans-serif" font-size="13" lengthAdjust="spacingAndGlyphs" textLength="93" x="138.5" y="151.8789">many sessions</text><text fill="#000000" font-family="sans-serif" font-size="13" lengthAdjust="spacingAndGlyphs" textLength="8" x="157.2995" y="88.0095">1</text><text fill="#000000" font-family="sans-serif" font-size="13" lengthAdjust="spacingAndGlyphs" textLength="6" x="79.2151" y="202.2999">*</text><!--MD5=[0bf598f06905055716cc314bf7dad372]
link user to user_group--><path d="M304.16,93.03 C317.22,102.71 330.94,113.08 343.5,123 C374.78,147.7 408.81,176.31 436.35,199.93 " fill="none" id="user-user_group" style="stroke: #333333; stroke-width: 2.0;"/><text fill="#000000" font-family="sans-serif" font-size="13" lengthAdjust="spacingAndGlyphs" textLength="89" x="384" y="136.5684">A user may be</text><text fill="#000000" font-family="sans-serif" font-size="13" lengthAdjust="spacingAndGlyphs" textLength="98" x="381.5" y="151.8789">in many groups</text><text fill="#000000" font-family="sans-serif" font-size="13" lengthAdjust="spacingAndGlyphs" textLength="8" x="304.6855" y="113.5862">1</text><text fill="#000000" font-family="sans-serif" font-size="13" lengthAdjust="spacingAndGlyphs" textLength="6" x="421.7847" y="189.2061">*</text><!--MD5=[8e3982808ed99a14b853c12304dfa5bf]
link group to user_group--><path d="M516.96,86.63 C511.98,118.2 504.62,164.85 499.09,199.89 " fill="none" id="group-user_group" style="stroke: #333333; stroke-width: 2.0;"/><text fill="#000000" font-family="sans-serif" font-size="13" lengthAdjust="spacingAndGlyphs" textLength="80" x="531" y="136.5684">A group may</text><text fill="#000000" font-family="sans-serif" font-size="13" lengthAdjust="spacingAndGlyphs" textLength="123" x="511.5" y="151.8789">contain many users</text><text fill="#000000" font-family="sans-serif" font-size="13" lengthAdjust="spacingAndGlyphs" textLength="8" x="507.1703" y="107.2551">1</text><text fill="#000000" font-family="sans-serif" font-size="13" lengthAdjust="spacingAndGlyphs" textLength="6" x="493.7397" y="189.1603">*</text><!--MD5=[2a6a43e01ffe3b828e50bf737e18e83a]
@startuml
!$THEME_PROP_FLAT=1
'!include ../themes/do-it-yourself.puml
!include db-model-plugin.puml

'skinparam linetype ortho
'skinparam shadowing false

$table("user", "user", "User in our system") {
  $field("id", "integer", $pk=1)
  $field("username", "varchar(32)", $unique=1, $not_null=1)
  $field("password", "varchar(64)", $not_null=1)
}

$table("session", "session", "session for user") {
  $field("id", "integer", $pk=1)
  $field("user_id", "integer", $fk=1, $not_null=1)
}

$table("user_profile", "user_profile", "Some info of user") {
  $field("user_id", "integer", $fk=1)
  $field("gender", "varchar(15)")
  $field("birthday", "datetime")
  - -Notes- -
  Space to enter notes \nabout this table
}

$table("group", "group", "group of users") {
  $field("id", "integer", $pk=1)
  $field("name", "varchar(32)", $not_null=1)
}

$table("user_group", "user_group", "user-group mapping") {
  $field("(user_id, group_id)", "composite", $pk=1)
  $field("user_id", "integer")
  $field("group_id", "integer")
  $field("joined_at", "datetime")
}

' relationships
' one-to-one relationship
$rel("user", "-", "user_profile", "A user only \nhas one profile")
' one-to-many relationship
$rel("user", "<", "session", "A user may have\n many sessions")
' many-to-many relationship
$rel("user", "<", "user_group", "A user may be \nin many groups")
$rel("group", "<", "user_group", "A group may \ncontain many users")

@enduml

@startuml

  skinparam roundcorner 10
  skinparam Class {
    FontStyle<<Table>> plain
    BackgroundColor<<Table>> #ffffff
    HeaderBackgroundColor<<Table>> #eeeeee
    BorderColor<<Table>> #999999
    BorderThickness<<Table>> 0.5
    AttributeFontSize<<Table>> 11
    ArrowColor #333333
    ArrowThickness 2
  }

hide methods
hide stereotypes
hide circle






entity user as "<color:#000000><b>user</b>\n<color:#666666>//User in our system//</color>" << (T, #FFAAAA) Table >> {
  <color:#666666><&key></color> <color:#000000><b>id</b></color><color:#666666><pk></color>  <color:#999999>integer</color>
  <color:#ffffff><&tag></color> <color:#000000><i>username</i></color><color:#666666></color>  <color:#999999>varchar(32)</color>
  <color:#ffffff><&minus></color> <color:#000000><u>password</u></color><color:#666666></color>  <color:#999999>varchar(64)</color>
}

entity session as "<color:#000000><b>session</b>\n<color:#666666>//session for user//</color>" << (T, #FFAAAA) Table >> {
  <color:#666666><&key></color> <color:#000000><b>id</b></color><color:#666666><pk></color>  <color:#999999>integer</color>
  <color:#666666><&link-intact></color> <color:#000000><b>user_id</b></color><color:#666666><fk></color>  <color:#999999>integer</color>
}

entity user_profile as "<color:#000000><b>user_profile</b>\n<color:#666666>//Some info of user//</color>" << (T, #FFAAAA) Table >> {
  <color:#666666><&link-intact></color> <color:#000000><b>user_id</b></color><color:#666666><fk></color>  <color:#999999>integer</color>
  <color:#ffffff><&question-mark></color> <color:#000000>gender</color><color:#666666></color>  <color:#999999>varchar(15)</color>
  <color:#ffffff><&question-mark></color> <color:#000000>birthday</color><color:#666666></color>  <color:#999999>datetime</color>
  - -Notes- -
  Space to enter notes \nabout this table
}

entity group as "<color:#000000><b>group</b>\n<color:#666666>//group of users//</color>" << (T, #FFAAAA) Table >> {
  <color:#666666><&key></color> <color:#000000><b>id</b></color><color:#666666><pk></color>  <color:#999999>integer</color>
  <color:#ffffff><&minus></color> <color:#000000><u>name</u></color><color:#666666></color>  <color:#999999>varchar(32)</color>
}

entity user_group as "<color:#000000><b>user_group</b>\n<color:#666666>//user-group mapping//</color>" << (T, #FFAAAA) Table >> {
  <color:#666666><&key></color> <color:#000000><b>(user_id, group_id)</b></color><color:#666666><pk></color>  <color:#999999>composite</color>
  <color:#ffffff><&question-mark></color> <color:#000000>user_id</color><color:#666666></color>  <color:#999999>integer</color>
  <color:#ffffff><&question-mark></color> <color:#000000>group_id</color><color:#666666></color>  <color:#999999>integer</color>
  <color:#ffffff><&question-mark></color> <color:#000000>joined_at</color><color:#666666></color>  <color:#999999>datetime</color>
}

user "1" - - "1" user_profile :A user only \nhas one profile
user "1" - - "*" session :A user may have\n many sessions
user "1" - - "*" user_group :A user may be \nin many groups
group "1" - - "*" user_group :A group may \ncontain many users

@enduml

PlantUML version 1.2020.10(Sun May 17 17:35:57 SGT 2020)
(GPL source distribution)
Java Runtime: OpenJDK Runtime Environment
JVM: OpenJDK 64-Bit Server VM
Java Version: 13.0.2+8
Operating System: Mac OS X
Default Encoding: UTF-8
Language: en
Country: SG
--></g></svg>